# xmcd
#
# Track frame offsets: 
#        150
#        17791
#        33293
#        51053
#        70624
#        87408
#        105138
#        122981
#        141812
#        159665
#        177148
#        195547
#        210559
#        227098
#        247187
#        264860
#        281959
#        299477
#        317924
#        333985
#
# Disc length: 4664 seconds
#
# Revision: 1
# Processed by: cddbd v1.5.2PL0 Copyright (c) Steve Scherf et al.
# Submitted via: ExactAudioCopy v0.99pb3
#
DISCID=23123614
DTITLE=Михайлов Стас - Всё для тебя ...
DYEAR=2007
DGENRE=Chanson
TTITLE0=Всё для тебя
TTITLE1=Мама
TTITLE2=Свеча
TTITLE3=Без тебя
TTITLE4=Отпускаю
TTITLE5=Не вдвоём
TTITLE6=Париж, Париж
TTITLE7=Серый дождь
TTITLE8=Жизнь обман
TTITLE9=Берега мечты
TTITLE10=Птица
TTITLE11=Половинка
TTITLE12=Знай об этом
TTITLE13=К тебе иду
TTITLE14=Забудь
TTITLE15=Война
TTITLE16=Живу и таю
TTITLE17=Ну, вот и всё
TTITLE18=Приказ
TTITLE19=Дети
EXTD=Музыка и стихи - С.Михайлов, кроме "Жизнь обман" - С.Есенин и "По
EXTD=ловинка" - Н. Симаков.\nСтудия "Квадро Диск".
EXTT0=
EXTT1=
EXTT2=
EXTT3=
EXTT4=
EXTT5=
EXTT6=
EXTT7=
EXTT8=
EXTT9=
EXTT10=
EXTT11=
EXTT12=
EXTT13=
EXTT14=
EXTT15=
EXTT16=
EXTT17=
EXTT18=
EXTT19=
PLAYORDER=
